HIERARCHY
ROOT Hips
{
 OFFSET 0.000000 0.000000 0.000000
 CHANNELS 6 Xposition Yposition Zposition Yrotation Xrotation Zrotation
 JOINT Chest
 {
  OFFSET 0.000000 10.354800 0.006500
  CHANNELS 3 Yrotation Xrotation Zrotation
  JOINT Chest2
  {
   OFFSET 0.000000 10.435800 -0.013200
   CHANNELS 3 Yrotation Xrotation Zrotation
   JOINT Chest3
   {
    OFFSET 0.000000 10.393700 0.000000
    CHANNELS 3 Yrotation Xrotation Zrotation
    JOINT Chest4
    {
     OFFSET 0.000000 10.383100 0.000000
     CHANNELS 3 Yrotation Xrotation Zrotation
     JOINT Neck
     {
      OFFSET 0.000000 15.694000 0.000000
      CHANNELS 3 Yrotation Xrotation Zrotation
      JOINT Head
      {
       OFFSET 0.000000 9.711000 -0.028000
       CHANNELS 3 Yrotation Xrotation Zrotation
       End Site
       {
        OFFSET 0.000000 18.578700 -0.014800
       }
      }
     }
     JOINT RightCollar
     {
      OFFSET -3.157200 10.367500 0.000000
      CHANNELS 3 Yrotation Xrotation Zrotation
      JOINT RightShoulder
      {
       OFFSET -14.482500 0.000000 0.000000
       CHANNELS 3 Yrotation Xrotation Zrotation
       JOINT RightElbow
       {
        OFFSET 0.000000 -31.707800 0.000000
        CHANNELS 3 Yrotation Xrotation Zrotation
        JOINT RightWrist
        {
         OFFSET 0.000000 -25.659300 0.000000
         CHANNELS 3 Yrotation Xrotation Zrotation
         End Site
         {
          OFFSET 0.000000 -18.994300 0.000000
         }
        }
       }
      }
     }
     JOINT LeftCollar
     {
      OFFSET 3.157200 10.367500 0.000000
      CHANNELS 3 Yrotation Xrotation Zrotation
      JOINT LeftShoulder
      {
       OFFSET 14.482500 0.000000 0.000000
       CHANNELS 3 Yrotation Xrotation Zrotation
       JOINT LeftElbow
       {
        OFFSET 0.000000 -31.707800 0.000000
        CHANNELS 3 Yrotation Xrotation Zrotation
        JOINT LeftWrist
        {
         OFFSET 0.000000 -25.659300 0.000000
         CHANNELS 3 Yrotation Xrotation Zrotation
         End Site
         {
          OFFSET 0.000000 -18.994300 0.000000
         }
        }
       }
      }
     }
    }
   }
  }
 }
 JOINT RightHip
 {
  OFFSET -8.365600 -0.032100 -0.003200
  CHANNELS 3 Yrotation Xrotation Zrotation
  JOINT RightKnee
  {
   OFFSET 0.000000 -43.980000 0.003100
   CHANNELS 3 Yrotation Xrotation Zrotation
   JOINT RightAnkle
   {
    OFFSET 0.000000 -42.882800 0.005200
    CHANNELS 3 Yrotation Xrotation Zrotation
    JOINT RightToe
    {
     OFFSET 0.000000 -4.915500 10.826300
     CHANNELS 3 Yrotation Xrotation Zrotation
     End Site
     {
      OFFSET 0.000000 -1.517500 6.175900
     }
    }
   }
  }
 }
 JOINT LeftHip
 {
  OFFSET 8.365600 -0.032100 -0.003200
  CHANNELS 3 Yrotation Xrotation Zrotation
  JOINT LeftKnee
  {
   OFFSET 0.000000 -43.980000 0.003100
   CHANNELS 3 Yrotation Xrotation Zrotation
   JOINT LeftAnkle
   {
    OFFSET 0.000000 -42.882800 0.005200
    CHANNELS 3 Yrotation Xrotation Zrotation
    JOINT LeftToe
    {
     OFFSET 0.000000 -4.915500 10.826300
     CHANNELS 3 Yrotation Xrotation Zrotation
     End Site
     {
      OFFSET 0.000000 -1.517500 6.175900
     }
    }
   }
  }
 }
}
MOTION
Frames: 12
Frame Time: 0.008333
0.000000 91.618600 0.000000 0.000000 -5.767877 0.000000 0.000000 11.653817 0.000000 0.000000 -5.885947 0.000000 0.000000 -0.000000 0.000000 0.000000 -0.000000 0.000000 0.000000 12.528835 0.000000 0.000000 0.711642 0.000000 0.000000 -0.000000 0.000000 0.000000 0.000000 -90.000000 0.000000 -2.309062 0.000000 0.000000 2.309062 0.000000 0.000000 -0.000000 0.000000 0.000000 -0.000000 90.000000 0.000000 -2.309062 0.000000 0.000000 2.309062 0.000000 0.000000 8.520406 0.000000 0.000000 1.905762 0.000000 -0.000000 -4.658285 0.000000 0.000000 -0.000000 0.000000 0.000000 8.520406 0.000000 0.000000 1.905762 0.000000 -0.000000 -4.658285 0.000000 0.000000 -0.000000 0.000000
93.197941 126.682796 123.192318 177.722432 -22.939463 -3.934482 -1.693554 13.995991 2.962501 -0.152941 1.271855 0.271414 -0.294992 2.078210 0.460093 -1.547641 12.585714 2.652428 -4.217859 20.307928 -4.522633 -3.504387 -4.033431 -3.902392 2.722631 4.770622 -3.915206 3.946099 -1.759820 -3.582004 -82.249859 -52.271007 119.531509 -23.982814 -9.660665 -32.091514 -1.021418 6.296236 -0.797204 6.822636 1.591133 0.201634 74.936108 -52.073677 -128.634466 26.110162 -2.912175 42.068448 6.663735 -60.466794 4.082171 -83.824298 78.740836 -78.897766 5.365732 -7.924437 -14.580931 0.014551 -0.001074 0.006606 -20.198296 -58.540726 14.579094 72.391628 81.122417 67.139908 -6.489171 -6.332569 -0.727074 0.000925 0.004492 0.000420
93.197031 126.679788 123.194007 177.759738 -22.888997 -3.943623 -1.682143 14.020016 2.966888 -0.169231 1.240843 0.273161 -0.310734 2.055705 0.461519 -1.547739 12.586100 2.651660 -4.661430 20.207901 -4.552297 -3.997576 -4.159504 -3.822492 2.700217 4.898388 -3.973714 3.967303 -1.880930 -3.604310 -82.095138 -52.304555 119.412497 -24.062480 -9.706778 -32.069711 -0.929474 6.299621 -0.745937 6.577654 1.457500 0.166598 74.576347 -52.126618 -128.357863 26.117005 -3.317983 42.447969 6.662217 -60.517616 4.058495 -83.893353 78.774547 -78.970068 5.413345 -7.998303 -14.582289 0.021343 -0.004380 0.009690 -20.257727 -58.589618 14.598557 72.247096 81.109863 67.000299 -6.482348 -6.311761 -0.736381 0.005210 0.005341 0.002366
93.194215 126.677638 123.193174 177.783146 -22.853793 -3.937023 -1.664395 14.039506 2.961840 -0.175260 1.231466 0.273720 -0.331375 2.030662 0.461631 -1.546406 12.587167 2.650985 -5.089694 20.117142 -4.568902 -4.491530 -4.280789 -3.730267 2.668823 5.063962 -4.047179 4.002026 -2.062472 -3.642588 -81.927397 -52.359166 119.248370 -24.182313 -9.699164 -31.975842 -0.839521 6.298136 -0.684729 6.277774 1.252152 0.135452 74.093864 -52.193375 -127.969616 26.140376 -3.862527 42.922918 6.685209 -60.552428 4.053418 -83.954340 78.747055 -79.027897 5.217382 -8.081638 -14.563043 0.015565 -0.004354 0.007067 -20.290244 -58.626966 14.595653 72.192668 81.095847 66.941957 -6.495422 -6.303456 -0.740784 0.003839 0.005206 0.001743
93.191414 126.676462 123.190619 177.795039 -22.834736 -3.927204 -1.659704 14.042973 2.952917 -0.151409 1.256354 0.276935 -0.290370 2.083914 0.461406 -1.530738 12.588131 2.657578 -5.558364 19.959104 -4.548782 -4.973491 -4.393689 -3.630041 2.562163 5.178413 -4.127933 4.049172 -2.299782 -3.697906 -81.761893 -52.433851 119.034226 -24.343819 -9.595402 -31.756000 -0.831856 6.200583 -0.602255 5.907798 0.965297 0.115519 73.477168 -52.266084 -127.423541 26.168040 -4.532174 43.440593 6.707623 -60.571906 4.036861 -84.003047 78.744202 -79.075920 5.069399 -8.155861 -14.548074 0.007778 -0.004926 0.003531 -20.308394 -58.650619 14.578146 72.181777 81.071170 66.925822 -6.477459 -6.290785 -0.746219 0.001202 0.003035 0.000546
93.188841 126.675522 123.188814 177.811460 -22.821167 -3.922955 -1.656212 14.051886 2.949886 -0.148483 1.257732 0.277841 -0.263118 2.114998 0.468351 -1.497879 12.620171 2.670358 -5.982617 19.836123 -4.532471 -5.429049 -4.496271 -3.525924 2.476407 5.346257 -4.243530 4.099160 -2.602470 -3.765508 -81.610289 -52.530017 118.754202 -24.539562 -9.324913 -31.347082 -0.827075 6.099482 -0.529252 5.444239 0.584040 0.109783 72.714484 -52.317822 -126.671249 26.205545 -5.308210 43.929946 6.722875 -60.586144 4.021858 -84.072521 78.757213 -79.151018 4.956054 -8.232582 -14.532454 0.003474 -0.006811 0.001577 -20.318536 -58.665474 14.563870 72.109750 81.059257 66.850678 -6.463299 -6.278823 -0.746990 0.003881 0.003310 0.001762
93.185994 126.674273 123.189552 177.841026 -22.806064 -3.926062 -1.597596 14.112793 2.980878 -0.171693 1.241505 0.277403 -0.296683 2.080984 0.459149 -1.454339 12.677438 2.696762 -6.352102 19.738429 -4.512816 -5.841013 -4.588443 -3.424485 2.419405 5.562946 -4.392052 4.141539 -2.988960 -3.836402 -81.484689 -52.654557 118.390722 -24.757410 -8.804430 -30.681423 -0.821368 5.992118 -0.458286 4.850436 0.082418 0.115666 71.780239 -52.298011 -125.660777 26.271953 -6.162877 44.304402 6.730391 -60.601113 4.003524 -84.130583 78.757183 -79.216904 4.883302 -8.272919 -14.513114 0.002619 -0.005640 0.001189 -20.346128 -58.680052 14.558934 72.054233 81.053123 66.792250 -6.478021 -6.278192 -0.751950 0.003424 0.005496 0.001555
93.182401 126.673653 123.190931 177.870196 -22.804846 -3.928973 -1.570507 14.163327 3.010159 -0.171059 1.250847 0.280954 -0.295466 2.096181 0.465126 -1.455164 12.696385 2.715122 -6.664873 19.652484 -4.491051 -6.192248 -4.669150 -3.333122 2.385541 5.819801 -4.578047 4.172349 -3.475561 -3.900339 -81.387500 -52.810152 117.921800 -24.980907 -7.961720 -29.679711 -0.812647 5.885457 -0.388295 4.089873 -0.569336 0.120599 70.638805 -52.132571 -124.326337 26.373876 -7.022284 44.427304 6.737010 -60.599999 3.985273 -84.183583 78.756645 -79.280166 4.810920 -8.309178 -14.490050 -0.002557 -0.003410 -0.001161 -20.368424 -58.681963 14.549006 72.008158 81.047826 66.740038 -6.480445 -6.273932 -0.756180 0.005512 0.007125 0.002503
93.176516 126.672829 123.194833 177.894351 -22.807905 -3.922159 -1.555409 14.201296 3.031745 -0.171982 1.260687 0.284881 -0.286578 2.128018 0.478696 -1.464736 12.721744 2.734844 -6.911252 19.582896 -4.468705 -6.470997 -4.734323 -3.255612 2.374226 6.103237 -4.790455 4.188961 -4.063339 -3.955676 -81.285434 -52.976223 117.310253 -25.186962 -6.754273 -28.286871 -0.804243 5.801798 -0.317817 3.156820 -1.395306 0.108707 69.298360 -51.773979 -122.660557 26.562265 -7.811925 44.187353 6.749824 -60.593129 3.956964 -84.203643 78.752251 -79.323764 4.747921 -8.344253 -14.460048 -0.017453 -0.000947 -0.007924 -20.370805 -58.684097 14.524442 71.918912 81.043564 66.642971 -6.486044 -6.259565 -0.759196 0.008804 0.006418 0.003998
93.171114 126.673930 123.196863 177.959765 -22.840325 -3.938146 -1.585182 14.258629 3.052766 -0.165444 1.276373 0.298980 -0.296498 2.133719 0.473557 -1.461390 12.782533 2.777109 -7.086288 19.536273 -4.445950 -6.671038 -4.777258 -3.193118 2.385496 6.392111 -5.005028 4.188493 -4.745157 -4.014711 -81.096545 -53.070173 116.520797 -25.378593 -5.252908 -26.538330 -0.812038 5.753004 -0.250646 2.075861 -2.404919 0.070594 67.810217 -51.209487 -120.743595 26.898625 -8.499414 43.595724 6.741379 -60.553410 3.936282 -84.222058 78.736657 -79.355688 4.745195 -8.348188 -14.450196 -0.018860 -0.001882 -0.008563 -20.400156 -58.655659 14.492630 71.848120 81.040684 66.557104 -6.489870 -6.245880 -0.752832 0.008433 0.006553 0.003829
93.163844 126.675700 123.199403 178.030544 -22.888339 -3.950237 -1.640998 14.316760 3.046360 -0.144722 1.300618 0.333922 -0.319413 2.116649 0.442258 -1.450674 12.873442 2.847301 -7.184236 19.519885 -4.424068 -6.785320 -4.790278 -3.148200 2.428154 6.666901 -5.197986 4.179384 -5.516049 -4.102749 -80.681771 -52.931291 115.514054 -25.586263 -3.706612 -24.587345 -0.842491 5.731666 -0.195355 0.883518 -3.586129 0.006818 66.249732 -50.436168 -118.679756 27.366461 -9.075875 42.685592 6.744000 -60.497403 3.904727 -84.232989 78.741143 -79.400996 4.774767 -8.345068 -14.410271 -0.023731 -0.000076 -0.010775 -20.413486 -58.613756 14.437482 71.677022 81.037974 66.367387 -6.484955 -6.214675 -0.738967 0.007323 0.004593 0.003325
93.159546 126.679115 123.200954 178.108339 -22.960547 -3.984985 -1.672145 14.409145 3.095315 -0.155006 1.308807 0.343338 -0.306160 2.177267 0.488922 -1.508935 12.889513 2.841307 -7.202125 19.539766 -4.404381 -6.809984 -4.766976 -3.123010 2.509308 6.902087 -5.351111 4.190907 -6.368854 -4.250056 -79.959992 -52.452481 114.286092 -25.876150 -2.474773 -22.691326 -0.892945 5.723335 -0.159136 -0.391113 -4.911073 -0.072488 64.740779 -49.479613 -116.563395 27.936861 -9.551112 41.427629 6.752509 -60.407504 3.895117 -84.206876 78.721718 -79.359174 4.744170 -8.346413 -14.392287 -0.012693 0.003521 -0.005763 -20.445089 -58.541230 14.396931 71.594286 81.035294 66.278138 -6.489994 -6.204205 -0.741272 0.007499 0.007342 0.003405
